<?xml version="1.0" encoding="utf-8"?>
<!-- Generator: Adobe Illustrator 23.0.5, SVG Export Plug-In . SVG Version: 6.00 Build 0)  -->
<svg version="1.1" xmlns="http://www.w3.org/2000/svg" xmlns:xlink="http://www.w3.org/1999/xlink" x="0px" y="0px"
	 viewBox="0 0 750 500" style="enable-background:new 0 0 750 500;" xml:space="preserve">
<style type="text/css">
	.st0{display:none;}
	.st1{display:inline;}
	.st2{clip-path:url(#SVGID_2_);fill:#FFFFFF;}
	.st3{fill:#F8E5C4;}
	.st4{fill:#EDD2A4;}
	.st5{fill:none;stroke:#EDD2A4;stroke-width:1.089;stroke-miterlimit:10;}
	.st6{fill:#FFABAB;}
	.st7{fill:#313F4A;}
	.st8{fill:#F59D00;}
	.st9{fill:#4C94B5;}
	.st10{fill:#FFFFFF;}
	.st11{fill:#A63B3B;}
	.st12{fill:#874F2E;}
	.st13{fill:#AD6E47;}
	.st14{fill:#734327;}
	.st15{fill:#4D4D4D;}
	.st16{fill:#F86C6C;}
	.st17{fill:#306A85;}
	.st18{fill:#BAD8E6;}
	.st19{fill:none;stroke:#8EBED4;stroke-width:1.0262;stroke-miterlimit:10;}
	.st20{fill:none;stroke:#306A85;stroke-linecap:round;stroke-linejoin:round;stroke-miterlimit:10;}
	.st21{fill:none;stroke:#FFFFFF;stroke-width:0.5131;stroke-miterlimit:10;}
	.st22{fill:none;stroke:#BAD8E6;stroke-width:1.0262;stroke-miterlimit:10;}
	.st23{fill:none;stroke:#306A85;stroke-width:1.0262;stroke-linecap:round;stroke-linejoin:round;stroke-miterlimit:10;}
	.st24{fill:#7D7D7D;}
	.st25{fill:#3B3B3B;}
	.st26{fill:#242424;}
	.st27{fill:#999C48;}
	.st28{fill:none;stroke:#313F4A;stroke-width:1.089;stroke-miterlimit:10;}
	.st29{fill:#6D9C8B;}
	.st30{fill:#27323B;}
	.st31{fill:none;stroke:#F86C6C;stroke-width:1.0262;stroke-miterlimit:10;}
	.st32{fill:none;stroke:#AD6E47;stroke-width:1.089;stroke-miterlimit:10;}
	.st33{opacity:0.2;}
	.st34{fill:#706E6E;}
	.st35{fill:#595858;}
</style>
<g id="BACKGROUND" class="st0">
	<g class="st1">
		<defs>
			<rect id="SVGID_1_" width="750" height="500"/>
		</defs>
		<use xlink:href="#SVGID_1_"  style="overflow:visible;fill:#FFFFFF;"/>
		<clipPath id="SVGID_2_">
			<use xlink:href="#SVGID_1_"  style="overflow:visible;"/>
		</clipPath>
		<rect x="-63" y="-40" class="st2" width="879" height="585"/>
	</g>
</g>
<g id="OBJECTS">
	<g>
		<g>
			<path class="st3" d="M441.13,951.66h563.38c0,0,20.52-21.46,15.39-52.25c-5.13-30.79-37.97-42.07-56.44-66.7
				c-18.47-24.63-42.07-74.74-115.96-89.19s-116.1-24.16-159.13-62.41s-97.68-65.24-172.63-25.88
				C423.35,703.76,405.22,865.12,441.13,951.66z"/>
			<path class="st4" d="M1017.37,929.25c-18.46-12.61-45.47-18.26-77.99-17.59c-29.98,0.62-45.99-56.7-107.39-73.29
				c-61.4-16.59-143.28,29.76-200.8-37.15c-52.84-61.46-112.23-73.91-191.55-46.82c-22.16,65.49-20.19,145,1.49,197.25h563.38
				C1004.51,951.66,1012.61,943.19,1017.37,929.25z"/>
			<line class="st5" x1="423.91" y1="951.66" x2="1026.75" y2="951.66"/>
		</g>
		<circle class="st6" cx="789.45" cy="717.44" r="124.75"/>
		<g>
			<path class="st7" d="M924.88,675.33H808.17c-3.42,0-6.19-2.77-6.19-6.19v-79.17c0-3.42,2.77-6.19,6.19-6.19h116.71
				c3.42,0,6.19,2.77,6.19,6.19v79.17C931.07,672.55,928.3,675.33,924.88,675.33z"/>
			<g>
				<path class="st8" d="M844.27,595.29h-25.86c-0.92,0-1.67-0.75-1.67-1.67v-0.21c0-0.92,0.75-1.67,1.67-1.67h25.86
					c0.92,0,1.67,0.75,1.67,1.67v0.21C845.93,594.55,845.19,595.29,844.27,595.29z"/>
				<path class="st8" d="M851.86,605.82H826c-0.92,0-1.67-0.75-1.67-1.67v-0.21c0-0.92,0.75-1.67,1.67-1.67h25.86
					c0.92,0,1.67,0.75,1.67,1.67v0.21C853.53,605.07,852.78,605.82,851.86,605.82z"/>
				<path class="st9" d="M917.91,605.82h-58.86c-0.92,0-1.67-0.75-1.67-1.67v-0.21c0-0.92,0.75-1.67,1.67-1.67h58.86
					c0.92,0,1.67,0.75,1.67,1.67v0.21C919.58,605.07,918.83,605.82,917.91,605.82z"/>
				<path class="st8" d="M866.52,613.31H826c-0.92,0-1.67-0.75-1.67-1.67v-0.21c0-0.92,0.75-1.67,1.67-1.67h40.52
					c0.92,0,1.67,0.75,1.67,1.67v0.21C868.19,612.56,867.44,613.31,866.52,613.31z"/>
				<path class="st6" d="M917.91,613.31h-40.52c-0.92,0-1.67-0.75-1.67-1.67v-0.21c0-0.92,0.75-1.67,1.67-1.67h40.52
					c0.92,0,1.67,0.75,1.67,1.67v0.21C919.58,612.56,918.83,613.31,917.91,613.31z"/>
				<path class="st8" d="M879.05,620.8H826c-0.92,0-1.67-0.75-1.67-1.67v-0.21c0-0.92,0.75-1.67,1.67-1.67h53.05
					c0.92,0,1.67,0.75,1.67,1.67v0.21C880.72,620.05,879.97,620.8,879.05,620.8z"/>
				<path class="st6" d="M917.81,620.8h-24.12c-0.98,0-1.77-0.79-1.77-1.77l0,0c0-0.98,0.79-1.77,1.77-1.77h24.12
					c0.98,0,1.77,0.79,1.77,1.77l0,0C919.58,620.01,918.78,620.8,917.81,620.8z"/>
				<path class="st10" d="M820.28,604.05c0,0.98-0.79,1.77-1.77,1.77c-0.98,0-1.77-0.79-1.77-1.77c0-0.98,0.79-1.77,1.77-1.77
					C819.49,602.28,820.28,603.07,820.28,604.05z"/>
				<path class="st10" d="M820.28,611.54c0,0.98-0.79,1.77-1.77,1.77c-0.98,0-1.77-0.79-1.77-1.77c0-0.98,0.79-1.77,1.77-1.77
					C819.49,609.77,820.28,610.56,820.28,611.54z"/>
				<path class="st10" d="M820.28,619.03c0,0.98-0.79,1.77-1.77,1.77c-0.98,0-1.77-0.79-1.77-1.77c0-0.98,0.79-1.77,1.77-1.77
					C819.49,617.26,820.28,618.05,820.28,619.03z"/>
				<path class="st11" d="M865.38,626.94h-47.51c-0.63,0-1.14-0.51-1.14-1.14l0,0c0-0.63,0.51-1.14,1.14-1.14h47.51
					c0.63,0,1.14,0.51,1.14,1.14l0,0C866.52,626.43,866.01,626.94,865.38,626.94z"/>
				<path class="st8" d="M851.86,643.62H826c-0.92,0-1.67-0.75-1.67-1.67v-0.21c0-0.92,0.75-1.67,1.67-1.67h25.86
					c0.92,0,1.67,0.75,1.67,1.67v0.21C853.53,642.87,852.78,643.62,851.86,643.62z"/>
				<path class="st9" d="M878.32,643.62h-19.15c-0.98,0-1.77-0.79-1.77-1.77l0,0c0-0.98,0.79-1.77,1.77-1.77h19.15
					c0.98,0,1.77,0.79,1.77,1.77l0,0C880.09,642.83,879.29,643.62,878.32,643.62z"/>
				<path class="st8" d="M852.7,651.11H826c-0.92,0-1.67-0.75-1.67-1.67v-0.21c0-0.92,0.75-1.67,1.67-1.67h26.7
					c0.92,0,1.67,0.75,1.67,1.67v0.21C854.36,650.36,853.62,651.11,852.7,651.11z"/>
				<path class="st6" d="M917.91,651.11h-58.86c-0.92,0-1.67-0.75-1.67-1.67v-0.21c0-0.92,0.75-1.67,1.67-1.67h58.86
					c0.92,0,1.67,0.75,1.67,1.67v0.21C919.58,650.36,918.83,651.11,917.91,651.11z"/>
				<path class="st8" d="M879.05,658.6H826c-0.92,0-1.67-0.75-1.67-1.67v-0.21c0-0.92,0.75-1.67,1.67-1.67h53.05
					c0.92,0,1.67,0.75,1.67,1.67v0.21C880.72,657.85,879.97,658.6,879.05,658.6z"/>
				<path class="st6" d="M917.81,658.6h-30.6c-0.98,0-1.77-0.79-1.77-1.77l0,0c0-0.98,0.79-1.77,1.77-1.77h30.6
					c0.98,0,1.77,0.79,1.77,1.77l0,0C919.58,657.81,918.78,658.6,917.81,658.6z"/>
				<path class="st10" d="M820.28,641.85c0,0.98-0.79,1.77-1.77,1.77c-0.98,0-1.77-0.79-1.77-1.77c0-0.98,0.79-1.77,1.77-1.77
					C819.49,640.08,820.28,640.87,820.28,641.85z"/>
				<path class="st10" d="M820.28,649.34c0,0.98-0.79,1.77-1.77,1.77c-0.98,0-1.77-0.79-1.77-1.77c0-0.98,0.79-1.77,1.77-1.77
					C819.49,647.57,820.28,648.36,820.28,649.34z"/>
				<path class="st10" d="M820.28,656.83c0,0.98-0.79,1.77-1.77,1.77c-0.98,0-1.77-0.79-1.77-1.77c0-0.98,0.79-1.77,1.77-1.77
					C819.49,655.06,820.28,655.85,820.28,656.83z"/>
				<path class="st11" d="M865.38,664.74h-47.51c-0.63,0-1.14-0.51-1.14-1.14l0,0c0-0.63,0.51-1.14,1.14-1.14h47.51
					c0.63,0,1.14,0.51,1.14,1.14l0,0C866.52,664.23,866.01,664.74,865.38,664.74z"/>
			</g>
		</g>
		<g>
			<polygon class="st12" points="828.72,870 822.19,870 821.17,816.26 829.73,816.26 			"/>
			<rect x="796.89" y="868.26" class="st13" width="57.13" height="8.46"/>
			<g>
				<polygon class="st12" points="842.81,820 858.51,952.18 865.23,952.18 853.37,820 				"/>
				<polygon class="st12" points="808.1,820 792.39,952.18 785.68,952.18 797.53,820 				"/>
			</g>
			<g>
				<polygon class="st14" points="829.73,816.26 821.17,816.26 821.46,831.49 829.47,830.29 				"/>
				<polygon class="st14" points="806.46,833.74 808.1,820 797.53,820 796.16,835.29 				"/>
				<polygon class="st14" points="853.37,820 842.81,820 843.78,828.15 853.97,826.62 				"/>
			</g>
			<path class="st15" d="M857.75,820h-64.59c-2.17,0-3.94-1.76-3.94-3.94V811c0-2.17,1.76-3.94,3.94-3.94h64.59
				c2.17,0,3.94,1.76,3.94,3.94v5.06C861.69,818.23,859.92,820,857.75,820z"/>
		</g>
		<g>
			<path class="st16" d="M772.56,931.28c0,0-0.11,9.83,1.43,14c1.54,4.17,1.37,8.5,1.37,8.5s-29.4,0.96-30.58,0.3
				c-0.76-0.43,6.84-3.43,12.42-5.54c3.27-1.24,5.2-4.63,4.6-8.07l-1.6-9.19H772.56z"/>
			<path class="st16" d="M713.28,931.28c0,0-2.46,10.4-2.5,14.17c1.5,4.33,0.44,8.33,0.44,8.33s-29.4,0.96-30.58,0.3
				c-0.88-0.49,9.49-4.46,14.9-6.47c1.98-0.74,3.45-2.42,3.92-4.47l1.47-11.86H713.28z"/>
			<path class="st4" d="M768.63,632.98c-7.64-0.32-10.83,5.4-9.35,10.14c1.99,6.41,0.51,6.85-0.29,11.21
				c-0.81,4.36-0.18,9.54,0.29,12.57c1,6.38-3.63,9.01-3.63,9.01s23.01-2.85,33.79-6.09c10.78-3.23,22.71-6.05,22.71-6.05
				s-1.77-8.7-5.79-11.12c-5.51-3.31-1.55-10.76-6.83-13.95C792.28,634.32,785.94,619.97,768.63,632.98z"/>
			<g>
				<path class="st9" d="M772.19,682.95c0,0-11.31,3.63-14.53,16.8c-2.03,8.31-6.63,33.87-6.63,33.87h21.69
					c0,0,5.18-21.18,6.82-30.17C781.17,694.46,776.84,683.67,772.19,682.95z"/>
				<path class="st16" d="M771.52,736.61l-3.68,17.14c-1.17,5.44-5.98,9.33-11.54,9.33H692.5c0,0,3.87-5.61,9.07-5.6
					c5.2,0,47.36-9.4,47.36-9.4l1.97-11.47H771.52z"/>
				<path class="st11" d="M750.9,736.61l-1.97,11.47c0,0-5.02,1.12-11.81,2.59c3.66,2.15,9.43,6.32,12.18,12.42h7
					c5.57,0,10.38-3.89,11.54-9.33l3.68-17.14H750.9z"/>
				<path class="st17" d="M772.19,682.95c0,0-11.31,3.63-14.53,16.8c-0.86,3.52-2.18,10.14-3.42,16.61c1.7,2.61,3.65,4.97,5.69,6.13
					c4.03,2.29,6.19,7.71,7.2,11.13h5.59c0,0,5.18-21.18,6.82-30.17C781.17,694.46,776.84,683.67,772.19,682.95z"/>
				<path class="st10" d="M771.8,740.59h-22.68c-1.31,0-2.3-1.19-2.05-2.48l0.84-4.4c0.19-0.98,1.05-1.69,2.05-1.69h22.68
					c1.31,0,2.3,1.19,2.05,2.48l-0.84,4.4C773.66,739.88,772.8,740.59,771.8,740.59z"/>
			</g>
			<path class="st10" d="M799.55,770.45c0,0-65.84,1.71-78.91,17.33c-17.06,20.4-27.68,145.73-27.68,145.73h27.68
				c0,0,3.37-10.42,4.69-28.69c0.53-7.37,6.16-19.43,6.85-34.73c0.69-15.3,12.43-40.01,13.22-53.82c0,0,102.46-4.15,105.8-17.48
				c3.33-13.33-3.17-30.58-3.17-30.58L799.55,770.45z"/>
			<path class="st18" d="M720.64,846.26c5.5,7,9.22,16.04,11.56,23.38c0.89-15.33,12.41-39.69,13.19-53.37
				c0,0,102.46-4.15,105.8-17.48c3.33-13.33-3.17-30.58-3.17-30.58l-48.48,2.25c0,0-65.84,1.71-78.91,17.33
				c-5.21,6.23-9.82,22.27-13.71,41.52C710.7,834.64,715.55,839.78,720.64,846.26z"/>
			<path class="st19" d="M766.04,793.8c0,0-27.82-4.63-33.86,13.26c-6.04,17.9-7.92,61.64-11.53,75.77
				c-3.61,14.12-6.1,50.68-6.1,50.68"/>
			<path class="st9" d="M848.54,745.17C848.54,745.17,848.54,745.17,848.54,745.17c-4.89-27.05-11.96-64.4-14.19-66.78
				c-2.52-2.69-18.44-4.15-27.17-5.82c-3.69-3.66-5.71-5.67-5.71-5.67l-20.78,6.97l-0.65,6.3l-7.85,2.78c0,0-1.03,12.22-1.62,19.83
				c-1.25,16.11,5.23,25.55,12.73,39.04c4.63,8.33,6.33,18.26,6.95,24.63c0.36,3.71,3.49,6.53,7.22,6.53h61.07
				C865.47,772.98,851,758.77,848.54,745.17z"/>
			<path class="st17" d="M848.54,745.17c-3.25-18-7.47-40.56-10.59-54.34l-14.82-5.33c0,0-9.36,19.32-7.72,31.46
				c0.87,6.4-4.46,9.23-5.8,18.88c-1.19,8.6,2.72,25.61,21.68,37.14h27.25C865.47,772.98,851,758.77,848.54,745.17
				C848.54,745.17,848.54,745.17,848.54,745.17z"/>
			<path class="st16" d="M784.23,673.84l1.03-0.1l6.49,8.22l0,0l-0.55-7.21c4.93-1.78,9.66-4.8,9.66-4.8l-8.65-15.32
				c0,0,2.54-6.31-0.62-7.79c-3.15-1.48-4.74,3.35-4.74,3.35s-11.59,0.31-17.23-9.26c-1.18,0.82-1.87,3.22-1.73,4.65
				c0.67,7.09,1.78,9.89,1.56,12.95c0.6,5.45,4.93,11.04,8.48,11.04c3.55,0,4.1-1.1,4.1-1.1L784.23,673.84z"/>
			<g>
				<g>
					<path class="st20" d="M770.41,652.26c0.41,2.83-0.58,5.3-2.21,5.51c-1.63,0.21-3.28-1.91-3.69-4.74
						c-0.41-2.83,0.58-5.3,2.21-5.51C768.34,647.31,770,649.43,770.41,652.26z"/>
					<path class="st20" d="M778.21,651.25c0.41,2.83-0.58,5.3-2.21,5.51c-1.63,0.21-3.28-1.91-3.69-4.74
						c-0.41-2.83,0.58-5.3,2.21-5.51C776.15,646.29,777.8,648.42,778.21,651.25z"/>
					<line class="st20" x1="770.23" y1="651.39" x2="772.23" y2="651.13"/>
				</g>
				<line class="st20" x1="777.92" y1="649.96" x2="788.04" y2="648.57"/>
			</g>
			<path class="st11" d="M788.04,666.75c1.01-3.18,2.32-7.99,1.21-7.99s-1.99,2.86-3.4,5.23c-1.41,2.37-3.83,4.47-3.83,4.47
				l1.99,4.82C785.27,671.34,787.32,668.99,788.04,666.75z"/>
			<path class="st21" d="M792.28,685.5c0,0,1.78,7.5,0.99,15.39c-0.79,7.89,1.38,19.64,3.16,24.82c1.78,5.18,3.98,16.82,5.05,24.71
				c1.07,7.89,2.65,16.96,6.2,22.11"/>
			<path class="st9" d="M828.09,676.05c11.49,2.44,19.65,11.21,21.43,25.61c1.78,14.4,4.62,34.94,4.62,34.94h-26.05
				c0,0-4.99-23.39-6.8-35.12S819.64,674.26,828.09,676.05z"/>
			<path class="st16" d="M852.67,734.27l2.16,15.59c0.97,7.05-4.5,13.33-11.62,13.33h-80.98c0,0,3.64-6.04,12.98-6.3
				c4.8-0.13,8.08,0.58,8.08,0.58l46.89-11.05l-1.78-12.15H852.67z"/>
			<path class="st10" d="M856.9,770.45c0,0,6.46,7.17,7.46,20.33c0.46,6.07-1.33,14.83-11.83,16.28c-9.66,1.33-80.5,9.2-80.5,9.2
				s2.75,30.44,2,45.69s2.5,24,0.75,32.5s1.75,32.8,0.75,40.4h-26c0,0-10.5-92.81-13.5-114.86s9.25-32.3,24.5-35.8
				s60.64-11.64,60.64-11.64L856.9,770.45z"/>
			<path class="st22" d="M848.03,768.2c0,0,6.83,21.28-1.83,25.6c-8.67,4.32-78,6.87-80.67,13.26c-2.67,6.39,2.67,53.19,0,60.29
				c-2.67,7.1,1,19.77,0,26.43c-1,6.67,2.83,41.07,2.83,41.07"/>
			<path class="st23" d="M792.7,675.81c0,0,1.25,1.56,2.75,3.48c1.5,1.92,2.58,3.67,2.58,3.67s6.42-5.67,8.33-9.25"/>
			<path class="st23" d="M785.2,675.91v7.71c0,0-2.42-1.33-4.08-3"/>
			<g>
				<path class="st10" d="M787.88,707.85c0.19,1.02-0.14,1.94-0.75,2.05c-0.6,0.11-1.25-0.62-1.44-1.64
					c-0.19-1.02,0.14-1.94,0.75-2.05C787.04,706.09,787.69,706.83,787.88,707.85z"/>
				<path class="st10" d="M790.76,723.23c0.19,1.02-0.14,1.94-0.75,2.05s-1.25-0.62-1.44-1.64c-0.19-1.02,0.14-1.94,0.75-2.05
					C789.93,721.47,790.57,722.21,790.76,723.23z"/>
				<path class="st10" d="M793.64,738.61c0.19,1.02-0.14,1.94-0.75,2.05c-0.6,0.11-1.25-0.62-1.44-1.64
					c-0.19-1.02,0.14-1.94,0.75-2.05C792.81,736.85,793.45,737.59,793.64,738.61z"/>
			</g>
			<path class="st10" d="M854.43,740.59H829c-1.13,0-2.08-0.84-2.22-1.95l-0.66-5.02c-0.18-1.34,0.87-2.53,2.22-2.53h25.43
				c1.13,0,2.08,0.84,2.22,1.95l0.66,5.02C856.83,739.4,855.78,740.59,854.43,740.59z"/>
			<path class="st17" d="M775.36,953.78c0,0,0.15-3.84-1.12-7.77c-1.28,0.56-2.96,1.2-4.65,1.56c-2.65,0.58-6.88-1.29-8.68-2.18
				c-0.82,1.4-2.1,2.54-3.71,3.15c-5.57,2.11-13.17,5.11-12.42,5.54C745.96,954.75,775.36,953.78,775.36,953.78z"/>
			<path class="st17" d="M697.86,946.07c-0.64,0.67-1.43,1.21-2.33,1.54c-5.41,2.01-15.78,5.97-14.9,6.47
				c1.18,0.67,30.58-0.3,30.58-0.3s0.82-3.07,0.01-6.75C704.55,949.31,700.02,947.44,697.86,946.07z"/>
		</g>
		<g>
			<path class="st24" d="M654.4,952.35h-82.89c-3.47,0-6.28-2.81-6.28-6.28V835.23c0-3.47,2.81-6.28,6.28-6.28h82.89
				c3.47,0,6.28,2.81,6.28,6.28v110.84C660.67,949.54,657.86,952.35,654.4,952.35z"/>
			<path class="st15" d="M585.78,952.35h-28.95c-3.47,0-6.28-2.81-6.28-6.28V835.23c0-3.47,2.81-6.28,6.28-6.28h28.95
				c3.47,0,6.28,2.81,6.28,6.28v110.84C592.06,949.54,589.25,952.35,585.78,952.35z"/>
			<g>
				<path class="st10" d="M642.66,870.08h-32.58c-3.83,0-6.93-3.1-6.93-6.93l0,0c0-3.83,3.1-6.93,6.93-6.93h32.58
					c3.83,0,6.93,3.1,6.93,6.93l0,0C649.58,866.98,646.48,870.08,642.66,870.08z"/>
				<path class="st10" d="M642.66,900.1h-32.58c-3.83,0-6.93-3.1-6.93-6.93l0,0c0-3.83,3.1-6.93,6.93-6.93h32.58
					c3.83,0,6.93,3.1,6.93,6.93l0,0C649.58,897,646.48,900.1,642.66,900.1z"/>
				<path class="st10" d="M642.66,930.12h-32.58c-3.83,0-6.93-3.1-6.93-6.93l0,0c0-3.83,3.1-6.93,6.93-6.93h32.58
					c3.83,0,6.93,3.1,6.93,6.93l0,0C649.58,927.02,646.48,930.12,642.66,930.12z"/>
			</g>
			<rect x="550.55" y="862.22" class="st25" width="41.5" height="1.88"/>
			<rect x="550.55" y="892.23" class="st25" width="41.5" height="1.88"/>
			<rect x="550.55" y="922.25" class="st25" width="41.5" height="1.88"/>
			<rect x="563.6" y="857.06" class="st26" width="5.36" height="2.12"/>
			<rect x="572.32" y="857.06" class="st26" width="5.36" height="2.12"/>
			<rect x="581.03" y="857.06" class="st26" width="5.36" height="2.12"/>
			<path class="st26" d="M581.23,887.62h-19.84c-1.32,0-2.39-1.07-2.39-2.39l0,0c0-1.32,1.07-2.39,2.39-2.39h19.84
				c1.32,0,2.39,1.07,2.39,2.39l0,0C583.62,886.54,582.55,887.62,581.23,887.62z"/>
			<path class="st26" d="M581.23,916.06h-19.84c-1.32,0-2.39-1.07-2.39-2.39l0,0c0-1.32,1.07-2.39,2.39-2.39h19.84
				c1.32,0,2.39,1.07,2.39,2.39l0,0C583.62,914.98,582.55,916.06,581.23,916.06z"/>
		</g>
		<path class="st8" d="M969.4,853.21c0.37-2.26,0.57-4.59,0.57-6.96c0-2.37-0.2-4.69-0.57-6.96h-11.93
			c-0.79-3.47-2.16-6.72-3.99-9.64l8.43-8.43c-2.72-3.79-6.05-7.11-9.84-9.84l-8.43,8.43c-2.92-1.84-6.17-3.2-9.64-3.99V803.9
			c-2.26-0.37-4.59-0.57-6.96-0.57c-2.37,0-4.69,0.2-6.96,0.57v11.93c-3.47,0.79-6.72,2.16-9.64,3.99l-8.43-8.43
			c-3.79,2.72-7.11,6.05-9.84,9.84l8.43,8.43c-1.84,2.92-3.2,6.17-3.99,9.64H884.7c-0.37,2.26-0.57,4.59-0.57,6.96
			c0,2.37,0.2,4.69,0.57,6.96h11.93c0.79,3.47,2.16,6.72,3.99,9.64l-8.43,8.43c2.72,3.79,6.05,7.11,9.84,9.84l8.43-8.43
			c2.92,1.84,6.17,3.2,9.64,3.99v11.93c2.26,0.37,4.59,0.57,6.96,0.57c2.37,0,4.69-0.2,6.96-0.57v-11.93
			c3.47-0.79,6.72-2.16,9.64-3.99l8.43,8.43c3.79-2.72,7.11-6.05,9.84-9.84l-8.43-8.43c1.84-2.92,3.2-6.17,3.99-9.64H969.4z
			 M927.05,861.62c-8.48,0-15.36-6.88-15.36-15.36c0-8.48,6.88-15.36,15.36-15.36c8.48,0,15.36,6.88,15.36,15.36
			C942.41,854.74,935.53,861.62,927.05,861.62z"/>
		<path class="st8" d="M1017.05,884.96c0.11-1.44,0.12-2.91-0.01-4.39c-0.12-1.49-0.37-2.93-0.72-4.33l-7.49,0.63
			c-0.68-2.14-1.71-4.1-3.01-5.84l4.85-5.73c-1.91-2.23-4.17-4.14-6.69-5.65l-4.85,5.73c-1.93-1-4.04-1.69-6.26-2l-0.63-7.49
			c-1.44-0.11-2.91-0.12-4.39,0.01c-1.49,0.12-2.93,0.37-4.33,0.72l0.63,7.49c-2.14,0.68-4.1,1.71-5.84,3.01l-5.73-4.85
			c-2.23,1.91-4.14,4.17-5.65,6.69l5.73,4.85c-1,1.93-1.69,4.04-2,6.26l-7.49,0.63c-0.11,1.44-0.12,2.91,0.01,4.39
			c0.12,1.49,0.37,2.93,0.72,4.33l7.49-0.63c0.68,2.14,1.71,4.1,3.01,5.84l-4.85,5.73c1.91,2.23,4.17,4.14,6.69,5.65l4.85-5.73
			c1.93,1,4.04,1.69,6.26,2l0.63,7.49c1.44,0.11,2.91,0.12,4.39-0.01c1.49-0.12,2.93-0.37,4.33-0.72l-0.63-7.49
			c2.14-0.68,4.1-1.71,5.84-3.01l5.73,4.85c2.23-1.91,4.14-4.17,5.65-6.69l-5.73-4.85c1-1.93,1.69-4.04,2-6.26L1017.05,884.96z
			 M990.92,892.47c-5.32,0.45-10-3.51-10.45-8.83c-0.45-5.32,3.51-10,8.83-10.45c5.32-0.45,10,3.51,10.45,8.83
			C1000.2,887.34,996.24,892.02,990.92,892.47z"/>
		<g>
			<g>
				<path class="st27" d="M435.78,802.62c7.87-2.96,14.33,6.57,16.18,14.56c1.85,7.99,12.47,3.08,15.94,12.56
					c3.47,9.48-3.66,16.31,1.24,21.61c4.9,5.3,23.36,23.55,15.27,57.64l-24.83,11.83c0,0-20.55-17.8-20.35-33.71
					c0.2-15.92,0.68-22.83-5.27-35.04c-5.96-12.22-0.76-20.05,0.3-26.74C435.32,818.63,429.22,805.09,435.78,802.62z"/>
				<path class="st28" d="M438.62,806.78c0,0,25.13,71.65,30.96,110.1"/>
				<path class="st28" d="M456.11,826.29c0,0-0.09,11.63-3.32,21.7"/>
				<path class="st28" d="M436.26,845.15c0,0,10.35,11.51,19.95,14.05"/>
				<path class="st28" d="M469.58,859.14c0,0-0.9,17.44-6.45,25.81"/>
				<path class="st28" d="M444.94,884.55c0,0,7.01,9.37,20.57,11.38"/>
			</g>
			<g>
				<path class="st29" d="M473.73,914.49c0,0-10.88-28.6-7.33-45.27c3.14-14.74,13.61-7.28,15.84-18.81
					c2.23-11.53-3.18-21.88-2.05-31.28c1.13-9.41,8.04-10.43,13.19-7.87c5.15,2.56,6.11-13.31,12.32-13.67
					c6.21-0.36,9.42,4.9,13.15,0.04c3.73-4.85,8.33-10.74,15.68-8.94c7.35,1.79-8.37,20.59-3.54,21.98
					c4.83,1.39,6.78,10.33-1.49,22.38c-4.24,6.17,10.77,7.58,1.29,19.64c-3.02,3.84-11.41,10.88-7.25,16.36
					c4.16,5.48,7.89,12.82,0.21,28.78c-7.4,15.37-9.4,15.76-9.4,15.76L473.73,914.49z"/>
				<path class="st28" d="M528.8,794.67c0,0-35.78,40.5-35.78,119.39"/>
				<path class="st28" d="M508.71,802.94c0,0-0.46,11.12,3.01,20.05"/>
				<path class="st28" d="M530.66,819.4c0,0-10.17,11.44-24.02,15.77"/>
				<path class="st28" d="M489.85,816.62c0,0-0.91,16.43,12.99,29.62"/>
				<path class="st28" d="M527.41,846.24c0,0-8.46,15.51-29.65,19.84"/>
				<path class="st28" d="M476.02,864.23c0,0,3.27,14.99,18.33,23.96"/>
				<path class="st28" d="M521.69,879.3c0,0-9.38,18.63-28.45,24.11"/>
			</g>
			<g>
				<line class="st28" x1="452.79" y1="958.67" x2="524.68" y2="958.67"/>
				<path class="st7" d="M445.86,908.35c0,21.03,7.44,38.04,11.53,45.79c1.48,2.81,4.32,4.54,7.39,4.54h36.83
					c3.07,0,5.91-1.73,7.39-4.54c4.08-7.75,11.53-24.76,11.53-45.79H445.86z"/>
				<path class="st30" d="M446.58,919.8c18.78,10.56,39.93,3.98,54.52-1.43c7.32-2.72,14.19-4.16,19.25-4.93
					c0.1-1.68,0.16-3.37,0.16-5.1h-74.66C445.86,912.32,446.13,916.15,446.58,919.8z"/>
			</g>
		</g>
		<g>
			<path class="st10" d="M558.59,747.8c0,0,8.66-2.72,8.98-9.52c0.32-6.8-20.43-6.79-19.53-15.62c0.91-8.84,36.66-8.79,38.88-25.39
				c2.22-16.6-19.26-16.77-28.33-17.9c-9.06-1.13-18.81-2.27-16.77-11.56c2.04-9.29,8.84-20.85-11.56-24.02
				c-20.4-3.17-27.42-1.13-27.42-1.13s23.11-0.23,20.17,9.74c-2.95,9.97-18.13,16.77-12.01,31.5c6.12,14.73,48.62,2.3,57.28,11.01
				c8.66,8.71-9.44,15.85-23.29,19.36c-15.77,3.99-21.59,11.42-14.73,14.58c7.55,3.48,33.66,1.7,25.05,17.11L558.59,747.8z"/>
			<g>
				<path class="st16" d="M557.74,743.52c-9.91,0-12.78,1.71-12.78,1.71c0,8.57,3.48,14.32,5.27,16.7c0.59,0.79,1.49,1.25,2.44,1.25
					h5.06h5.06c0.96,0,1.85-0.47,2.44-1.25c1.79-2.39,5.27-8.13,5.27-16.7C570.52,745.23,567.65,743.52,557.74,743.52z"/>
				<path class="st31" d="M568.95,750.45c0,0,1.55-5.13,6.47-3.79c3.54,0.97,3.11,5.16,1.95,7.27c-2.22,4.04-10.83,4.94-12.91,7.51"
					/>
				<path class="st11" d="M556.15,743.54c-8.62,0.17-11.19,1.69-11.19,1.69c0,8.57,3.48,14.32,5.27,16.7
					c0.59,0.79,1.49,1.25,2.44,1.25h0.53C548.71,753.27,552.52,746.94,556.15,743.54z"/>
			</g>
		</g>
		<g>
			<polygon class="st13" points="620.8,771.14 642.78,956.2 649.71,956.2 633.11,771.14 			"/>
			<polygon class="st13" points="555.04,771.14 541.19,963.55 548.11,963.55 567.36,771.14 			"/>
			<polygon class="st13" points="793.89,771.14 780.03,963.55 786.96,963.55 806.2,771.14 			"/>
			<polygon class="st13" points="859.64,771.14 881.63,956.2 888.55,956.2 871.96,771.14 			"/>
			<line class="st32" x1="538.11" y1="963.55" x2="556.58" y2="963.55"/>
			<line class="st32" x1="638.42" y1="956.2" x2="656.89" y2="956.2"/>
			<line class="st32" x1="776.45" y1="963.55" x2="794.92" y2="963.55"/>
			<line class="st32" x1="876.76" y1="956.2" x2="895.23" y2="956.2"/>
			<rect x="541.19" y="763.19" class="st12" width="324.79" height="7.95"/>
			<g>
				<polygon class="st14" points="554.13,783.83 565.83,786.44 567.36,771.14 555.04,771.14 				"/>
				<polygon class="st14" points="633.11,771.14 620.8,771.14 624.16,799.44 635.88,802.06 				"/>
			</g>
			<g>
				<polygon class="st12" points="792.93,784.13 804.63,786.73 806.16,771.44 793.85,771.44 				"/>
				<polygon class="st12" points="871.92,771.44 859.6,771.44 862.96,799.74 874.69,802.35 				"/>
			</g>
			<rect x="780.03" y="763.19" class="st13" width="105.06" height="7.95"/>
		</g>
		<g>
			<g class="st33">
				<path d="M750.8,642.74l-20-12.25c0.19-1.47,0.29-2.96,0.29-4.48c0-19.45-15.76-35.21-35.21-35.21
					c-19.45,0-35.21,15.76-35.21,35.21c0,19.45,15.76,35.21,35.21,35.21c13.39,0,25.03-7.48,30.99-18.48H750.8z"/>
			</g>
			<g>
				<path class="st16" d="M752.6,640.03l-20-12.25c0.19-1.47,0.29-2.96,0.29-4.48c0-19.45-15.76-35.21-35.21-35.21
					s-35.21,15.76-35.21,35.21c0,19.45,15.76,35.21,35.21,35.21c13.39,0,25.04-7.48,30.99-18.48H752.6z"/>
				
					<text transform="matrix(1 0 0 1 669.5828 636.2324)" class="st10" style="font-family:'OpenSans-Bold'; font-size:32.6054px; letter-spacing:1;">&lt;/&gt;</text>
			</g>
		</g>
		<g>
			<polygon class="st34" points="707.22,727.04 601.24,727.04 592.2,665.7 698.18,665.7 			"/>
			<polygon class="st35" points="707.22,727.04 702,727.04 692.97,665.7 698.18,665.7 			"/>
			<polygon class="st35" points="655.56,757.62 627.81,757.62 635.11,710.89 662.86,710.89 			"/>
			<polygon class="st25" points="655.56,757.62 652.16,757.62 659.46,710.89 662.86,710.89 			"/>
			<rect x="613.84" y="757.62" class="st25" width="69.19" height="5.57"/>
		</g>
		<rect x="677.16" y="761.22" class="st25" width="68.24" height="1.97"/>
		<g>
			<rect x="878.01" y="707.88" class="st33" width="85.96" height="44.58"/>
			<rect x="874.69" y="704.95" class="st9" width="85.96" height="44.58"/>
			
				<text transform="matrix(1 0 0 1 887.5244 738.8794)" class="st10" style="font-family:'OpenSans-Bold'; font-size:31.4516px; letter-spacing:1;">C++</text>
		</g>
		<g>
			<rect x="409.04" y="723.33" class="st33" width="112.53" height="58.36"/>
			<rect x="404.69" y="719.5" class="st16" width="112.53" height="58.36"/>
			
				<text transform="matrix(1 0 0 1 420.0698 758.4458)" class="st10" style="font-family:'OpenSans-Bold'; font-size:28.5456px; letter-spacing:1;">HTML</text>
		</g>
	</g>
</g>
<g id="DESIGNED_BY_FREEPIK">
</g>
</svg>
